<?xml version="1.0" encoding="UTF-8" standalone="no"?>
<svg
   xmlns:dc="http://purl.org/dc/elements/1.1/"
   xmlns:cc="http://creativecommons.org/ns#"
   xmlns:rdf="http://www.w3.org/1999/02/22-rdf-syntax-ns#"
   xmlns:svg="http://www.w3.org/2000/svg"
   xmlns="http://www.w3.org/2000/svg"
   xmlns:xlink="http://www.w3.org/1999/xlink"
   xmlns:sodipodi="http://sodipodi.sourceforge.net/DTD/sodipodi-0.dtd"
   xmlns:inkscape="http://www.inkscape.org/namespaces/inkscape"
   id="svg4720"
   viewBox="0 0 429.13 681.39"
   version="1.1"
   inkscape:version="0.91 r13725"
   sodipodi:docname="SnowmanEmo_byRones.svg.xml.svg">
  <sodipodi:namedview
     pagecolor="#ffffff"
     bordercolor="#666666"
     borderopacity="1"
     objecttolerance="10"
     gridtolerance="10"
     guidetolerance="10"
     inkscape:pageopacity="0"
     inkscape:pageshadow="2"
     inkscape:window-width="1301"
     inkscape:window-height="744"
     id="namedview35"
     showgrid="false"
     inkscape:zoom="0.9796281"
     inkscape:cx="67.574568"
     inkscape:cy="553.52665"
     inkscape:window-x="65"
     inkscape:window-y="24"
     inkscape:window-maximized="1"
     inkscape:current-layer="svg4720" />
  <defs
     id="defs4722">
    <linearGradient
       id="linearGradient5279"
       x1="1408.6"
       xlink:href="#linearGradient4667"
       gradientUnits="userSpaceOnUse"
       y1="728.74"
       gradientTransform="translate(-1116.8,111.46)"
       x2="1451"
       y2="767.31" />
    <linearGradient
       id="linearGradient4667">
      <stop
         id="stop4669"
         stop-color="#fff"
         offset="0" />
      <stop
         id="stop4671"
         stop-color="#ffe8fa"
         stop-opacity="0"
         offset="1" />
    </linearGradient>
    <linearGradient
       id="linearGradient5281"
       x1="1435.4"
       xlink:href="#linearGradient4667"
       gradientUnits="userSpaceOnUse"
       y1="643.89"
       gradientTransform="translate(-1116.8,111.46)"
       x2="1453"
       y2="663.77" />
    <linearGradient
       id="linearGradient5283"
       x1="1502.6"
       xlink:href="#linearGradient4667"
       gradientUnits="userSpaceOnUse"
       y1="683.28"
       gradientTransform="translate(-1116.8,111.46)"
       x2="1524.2"
       y2="704.68" />
  </defs>
  <g
     transform="matrix(0.1344595,0,0,0.09415285,-184.80388,-47.593687)"
     id="g4564">
    <path
       style="fill:#ffaaee"
       inkscape:connector-curvature="0"
       d="m 1413.6,616.47 c -10.61,0 -19.215,9.0175 -19.215,20.154 0,11.127 8.6045,20.154 19.215,20.154 10.6105,0 19.215,-9.0269 19.215,-20.154 0,-11.136 -8.6046,-20.154 -19.215,-20.154 z"
       id="path4204" />
    <path
       style="opacity:0.22222003;fill:#8800ff"
       inkscape:connector-curvature="0"
       d="m 1421.8,618.47 c 0.5928,1.9407 0.9062,4.0084 0.9062,6.1562 0,11.127 -8.5771,20.156 -19.188,20.156 -2.9767,0 -5.7973,-0.73203 -8.3125,-2 2.4808,8.1189 9.7485,14 18.312,14 10.61,0 19.188,-9.0296 19.188,-20.156 0,-8.0169 -4.4493,-14.909 -10.906,-18.156 z"
       id="path4549" />
    <path
       style="opacity:0.66204002;fill:#c169ad"
       inkscape:connector-curvature="0"
       d="m 1582.1,856.29 c 0,5.7201 -44.931,10.357 -100.36,10.357 -55.426,0 -100.36,-4.637 -100.36,-10.357 0,-5.7201 44.931,-10.357 100.36,-10.357 55.426,0 100.36,4.637 100.36,10.357 z"
       transform="matrix(0.76083,0,0,0.4619,340.64,460.15)"
       id="path4642" />
    <path
       style="fill:#ffaaee"
       inkscape:connector-curvature="0"
       d="m 1468.4,697.76 c -45.028,0 -81.546,36.035 -81.546,80.504 0,44.469 36.518,80.504 81.546,80.504 45.047,0 81.546,-36.035 81.546,-80.504 0,-44.469 -36.499,-80.504 -81.546,-80.504 z"
       id="path4202" />
    <path
       inkscape:connector-curvature="0"
       style="opacity:0.61110995;fill:url(#linearGradient5279)"
       d="m 1458.9,712.54 c -32.517,0 -58.872,25.998 -58.872,58.111 0,17.549 7.8824,33.285 20.332,43.944 -7.8441,-9.8751 -12.54,-22.313 -12.54,-35.837 0,-32.113 26.38,-58.137 58.898,-58.137 14.75,0 28.209,5.3772 38.54,14.219 -10.779,-13.57 -27.53,-22.3 -46.358,-22.3 z"
       id="path4650" />
    <path
       style="fill:#ffaaee"
       inkscape:connector-curvature="0"
       d="m 1462.3,625.58 c -25.626,0 -46.397,20.557 -46.397,45.931 0,25.365 20.771,45.931 46.397,45.931 25.626,0 46.397,-20.566 46.397,-45.931 0,-25.375 -20.771,-45.931 -46.397,-45.931 z"
       id="path4206" />
    <path
       style="fill-rule:evenodd"
       inkscape:connector-curvature="0"
       d="m 1572.1,549.87 c -1.0886,0.011 -2.1393,0.71572 -2.5625,1.7188 l -54.015,123.36 11.719,6 56.796,-124.3 c 0.6526,-1.4527 -0.2259,-3.3821 -1.75,-3.8438 l -9.375,-2.8125 c -0.2628,-0.0811 -0.5375,-0.12336 -0.8125,-0.125 z"
       id="21" />
    <path
       style="fill-rule:evenodd"
       inkscape:connector-curvature="0"
       d="m 1437,520.52 c 47.97,-4.124 87.842,-12.925 116.92,34.625 3.922,-1.4603 7.0095,-5.6088 11.899,-5.7467 l -1.9375,9.75 c -0.2512,1.2751 0.5114,2.6755 1.7188,3.1562 l 13.562,5.2812 c 1.2431,0.48874 2.8046,-0.0599 3.4688,-1.2188 l 15.263,-28.384 c 2.1258,-8.6532 -16.37,-14.927 -18.106,-11.459 -0.051,-0.0275 -1.8729,2.9954 -1.924,2.968 -48.263,-26.041 -89.938,-33.46 -140.87,-8.9714 z"
       id="23" />
    <path
       style="opacity:0.22222003;fill:#8800ff"
       inkscape:connector-curvature="0"
       d="m 1526,721.34 c 8.7528,12.83 13.875,28.27 13.875,44.906 0,44.469 -36.515,80.531 -81.562,80.531 -22.514,0 -42.898,-9.0263 -57.656,-23.594 14.648,21.466 39.473,35.594 67.656,35.594 45.047,0 81.562,-36.062 81.562,-80.531 0,-22.234 -9.1193,-42.339 -23.875,-56.906 z"
       transform="matrix(0.93045,0,0,0.93045,102.61,54.951)"
       id="path4547" />
    <path
       style="opacity:0.22222003;fill:#8800ff"
       inkscape:connector-curvature="0"
       d="m 1492.5,636.69 c 3.8973,6.7242 6.125,14.502 6.125,22.812 0,25.365 -20.749,45.938 -46.375,45.938 -11.568,0 -22.156,-4.1935 -30.281,-11.125 7.9982,13.819 23.039,23.125 40.281,23.125 25.626,0 46.375,-20.572 46.375,-45.938 0,-13.924 -6.2459,-26.391 -16.125,-34.812 z"
       id="path4551" />
    <path
       style="fill:#ffaaee"
       inkscape:connector-curvature="0"
       d="m 1513.6,674.6 c -10.61,0 -19.215,9.0175 -19.215,20.154 0,11.127 8.6045,20.154 19.215,20.154 10.6105,0 19.215,-9.0269 19.215,-20.154 0,-11.136 -8.6046,-20.154 -19.215,-20.154 z"
       id="path4220" />
    <path
       style="opacity:0.22222003;fill:#8800ff"
       inkscape:connector-curvature="0"
       d="m 1521.9,676.59 c 0.598,1.9484 0.9374,3.9986 0.9374,6.1562 0,11.127 -8.6083,20.156 -19.219,20.156 -2.9745,0 -5.7674,-0.73378 -8.2813,-2 2.4809,8.1189 9.7173,14 18.281,14 10.61,0 19.219,-9.0296 19.219,-20.156 0,-8.0169 -4.4805,-14.909 -10.937,-18.156 z"
       id="path4555" />
    <path
       inkscape:connector-curvature="0"
       style="opacity:0.61110995;fill:url(#linearGradient5281)"
       d="m 1460.6,632.16 c -20.656,0 -37.396,16.514 -37.396,36.913 0,11.147 5.007,21.143 12.915,27.914 -4.9827,-6.2728 -7.9659,-14.173 -7.9659,-22.764 0,-20.399 16.757,-36.93 37.413,-36.93 9.3697,0 17.919,3.4157 24.481,9.0325 -6.847,-8.6196 -17.487,-14.165 -29.447,-14.165 z"
       id="path4675" />
    <path
       inkscape:connector-curvature="0"
       style="opacity:0.61110995;fill:url(#linearGradient5283)"
       d="m 1503,703.24 c -5.2695,-6.9109 1.817,-16.735 3.2279,-17.922 1.6863,-1.4184 11.422,-8.8448 20.235,-2.2959 -5.5446,-10.531 -18.026,-7.177 -23.926,-0.68142 -5.9003,6.4956 -6.0573,15.29 0.464,20.899 z"
       id="path4679" />
    <path
       style="fill-rule:evenodd"
       inkscape:connector-curvature="0"
       d="m 1435.6,574.22 -10.885,9.5344 c 0.01,0.18106 -2e-4,0.34916 0.016,0.53192 0.459,5.1539 5.0067,8.9662 10.17,8.5064 5.1535,-0.45896 8.9654,-5.0158 8.5064,-10.17 -0.3875,-4.3513 -3.696,-7.7211 -7.8074,-8.4031 z"
       id="path4198" />
    <path
       style="fill-rule:evenodd"
       inkscape:connector-curvature="0"
       d="m 1440.5,570.44 c 27.85,-13.723 56.623,5.2736 55.749,34.014 l 21.379,-48.208 c -1.9539,-15.006 -16.896,-26.662 -30.931,-27.184 L 1440.5,570.44 Z"
       id="path4212" />
    <path
       style="fill:#ffaaee"
       inkscape:connector-curvature="0"
       d="m 1460.9,564.09 c -19.674,0 -35.618,15.738 -35.618,35.152 0,19.413 15.944,35.152 35.618,35.152 19.674,0 35.618,-15.738 35.618,-35.152 0,-19.413 -15.944,-35.152 -35.618,-35.152 z"
       id="path4200" />
    <path
       style="opacity:0.22222003;fill:#8800ff"
       inkscape:connector-curvature="0"
       d="m 1482.7,571.47 c 2.4203,4.7459 3.7813,10.106 3.7813,15.781 0,19.413 -15.92,35.156 -35.594,35.156 -8.2319,0 -15.813,-2.7794 -21.844,-7.4062 5.8567,11.492 17.918,19.406 31.844,19.406 19.674,0 35.594,-15.743 35.594,-35.156 0,-11.298 -5.388,-21.35 -13.781,-27.781 z"
       id="path4553" />
    <path
       style="fill-rule:evenodd"
       inkscape:connector-curvature="0"
       d="m 1431.8,588.46 -57.266,10.398 59.453,8.5284 c 6.3307,-5.7155 4.4398,-15.15 -2.1865,-18.927 z"
       id="path4208" />
    <path
       style="fill-rule:evenodd"
       inkscape:connector-curvature="0"
       d="m 2562.3,464.09 c -1.5443,1.6692 -2.5,3.8838 -2.5,6.3438 0,5.1743 4.1916,9.375 9.375,9.375 3.9144,0 7.2535,-2.4012 8.6563,-5.8125 l -15.531,-9.9062 z"
       transform="translate(-1116.8,111.46)"
       id="path4210" />
    <path
       style="fill-rule:evenodd"
       inkscape:connector-curvature="0"
       d="m 1502,704.58 -63.284,143.92 c -1.912,4.3482 9.7369,10.375 11.732,5.8892 l 63.439,-142.65 c -0.051,-5.4452 -6.1372,-8.7931 -11.886,-7.1673 z"
       id="25" />
  </g>
  <metadata
     id="metadata33">
    <rdf:RDF>
      <cc:Work>
        <dc:format>image/svg+xml</dc:format>
        <dc:type
           rdf:resource="http://purl.org/dc/dcmitype/StillImage" />
        <cc:license
           rdf:resource="http://creativecommons.org/licenses/publicdomain/" />
        <dc:publisher>
          <cc:Agent
             rdf:about="http://openclipart.org/">
            <dc:title>Openclipart</dc:title>
          </cc:Agent>
        </dc:publisher>
        <dc:title></dc:title>
        <dc:date>2010-12-08T19:56:48</dc:date>
        <dc:description>Christmas, Newyear, Xmas, clip art, clipart, humor, snow, snowman, Новый Год, Снеговик, </dc:description>
        <dc:source>http://openclipart.org/detail/99907/snowman-emo-by-rones-by-rones</dc:source>
        <dc:creator>
          <cc:Agent>
            <dc:title>rones</dc:title>
          </cc:Agent>
        </dc:creator>
        <dc:subject>
          <rdf:Bag>
            <rdf:li>Christmas</rdf:li>
            <rdf:li>Newyear</rdf:li>
            <rdf:li>Xmas</rdf:li>
            <rdf:li>clip art</rdf:li>
            <rdf:li>clipart</rdf:li>
            <rdf:li>humor</rdf:li>
            <rdf:li>snow</rdf:li>
            <rdf:li>snowman</rdf:li>
            <rdf:li>Новый Год</rdf:li>
            <rdf:li>Снеговик</rdf:li>
          </rdf:Bag>
        </dc:subject>
      </cc:Work>
      <cc:License
         rdf:about="http://creativecommons.org/licenses/publicdomain/">
        <cc:permits
           rdf:resource="http://creativecommons.org/ns#Reproduction" />
        <cc:permits
           rdf:resource="http://creativecommons.org/ns#Distribution" />
        <cc:permits
           rdf:resource="http://creativecommons.org/ns#DerivativeWorks" />
      </cc:License>
    </rdf:RDF>
  </metadata>
</svg>
