<?xml version="1.0" encoding="UTF-8" standalone="no"?>
<svg
   xmlns:dc="http://purl.org/dc/elements/1.1/"
   xmlns:cc="http://creativecommons.org/ns#"
   xmlns:rdf="http://www.w3.org/1999/02/22-rdf-syntax-ns#"
   xmlns:svg="http://www.w3.org/2000/svg"
   xmlns="http://www.w3.org/2000/svg"
   xmlns:sodipodi="http://sodipodi.sourceforge.net/DTD/sodipodi-0.dtd"
   xmlns:inkscape="http://www.inkscape.org/namespaces/inkscape"
   id="svg3044"
   viewBox=""
   version="1.1"
   inkscape:version="0.91 r13725"
   sodipodi:docname="editedstar.xml.svg">
  <metadata
     id="metadata36">
    <rdf:RDF>
      <cc:Work
         rdf:about="">
        <dc:format>image/svg+xml</dc:format>
        <dc:type
           rdf:resource="http://purl.org/dc/dcmitype/StillImage" />
        <dc:title />
      </cc:Work>
    </rdf:RDF>
  </metadata>
  <sodipodi:namedview
     pagecolor="#ffffff"
     bordercolor="#666666"
     borderopacity="1"
     objecttolerance="10"
     gridtolerance="10"
     guidetolerance="10"
     inkscape:pageopacity="0"
     inkscape:pageshadow="2"
     inkscape:window-width="1301"
     inkscape:window-height="744"
     id="namedview34"
     showgrid="false"
     inkscape:zoom="3.337544"
     inkscape:cx="69.127827"
     inkscape:cy="58.421427"
     inkscape:window-x="65"
     inkscape:window-y="24"
     inkscape:window-maximized="1"
     inkscape:current-layer="svg3044" />
  <defs
     id="defs3046">
    <filter
       id="filter4120"
       color-interpolation-filters="sRGB">
      <feGaussianBlur
         id="feGaussianBlur4122"
         stdDeviation="4.2825238" />
    </filter>
    <filter
       id="filter4231"
       color-interpolation-filters="sRGB">
      <feGaussianBlur
         id="feGaussianBlur4233"
         stdDeviation="3.0613974" />
    </filter>
    <filter
       id="filter4247"
       color-interpolation-filters="sRGB">
      <feGaussianBlur
         id="feGaussianBlur4249"
         stdDeviation="9.9908323" />
    </filter>
    <radialGradient
       id="radialGradient3024"
       gradientUnits="userSpaceOnUse"
       cy="435.34"
       cx="273"
       gradientTransform="matrix(1.2419,0.036741,-0.033989,1.1489,-51.23,-74.837)"
       r="57.17">
      <stop
         id="stop3971"
         stop-color="#fcfc80"
         offset="0" />
      <stop
         id="stop3977"
         stop-color="#dcb028"
         offset=".5" />
      <stop
         id="stop3973"
         stop-color="#b07400"
         offset="1" />
    </radialGradient>
    <radialGradient
       id="radialGradient3026"
       gradientUnits="userSpaceOnUse"
       cy="309.49"
       cx="84.079"
       gradientTransform="matrix(1.0946,-0.04248,0.036053,0.92899,-19.11,25.45)"
       r="425.77">
      <stop
         id="stop4005"
         stop-color="#ff0"
         offset="0" />
      <stop
         id="stop4007"
         stop-color="#fc0"
         offset=".5665" />
      <stop
         id="stop4009"
         stop-color="#f00"
         offset="1" />
    </radialGradient>
    <filter
       id="filter3841"
       height="1.3582"
       width="1.3619"
       y="-.17908"
       x="-.18093"
       color-interpolation-filters="sRGB">
      <feGaussianBlur
         id="feGaussianBlur3843"
         stdDeviation="7.7867205" />
    </filter>
    <filter
       id="filter3863"
       color-interpolation-filters="sRGB">
      <feGaussianBlur
         id="feGaussianBlur3865"
         stdDeviation="3.4564773" />
    </filter>
    <filter
       id="filter3891"
       color-interpolation-filters="sRGB">
      <feGaussianBlur
         id="feGaussianBlur3893"
         stdDeviation="4.8686335" />
    </filter>
  </defs>
  <!-- <g id="layer1" transform=""> -->
  <g
     id="g3373"
     transform="translate(-47.639821,-8.9886455)">
    <path
       id="path4190"
       d="m 86.653905,43.983573 c -0.3898,0.47808 -13.953,-5.2703 -14.549,-5.1127 -0.59636,0.15766 -9.5464,11.858 -10.122,11.635 -0.57514,-0.22298 0.70076,-14.898 0.36653,-15.417 -0.33423,-0.51845 -14.228,-5.4148 -14.193,-6.0307 0.03434,-0.6159 14.386,-3.9374 14.776,-4.4155 0.3898,-0.47808 0.75327,-15.2039999 1.3496,-15.3619999 0.59636,-0.15766 8.1902,12.4649999 8.7653,12.6879999 0.57514,0.22298 14.693,-3.982 15.027,-3.4636 0.33423,0.51846 -9.324,11.641 -9.3584,12.257 -0.03434,0.61589 8.3275,12.743 7.9377,13.222 z"
       inkscape:connector-curvature="0"
       style="stroke:#d09c14;stroke-width:0.2045;stroke-linecap:round" />
    <path
       id="path3939"
       d="m 309.56,481.75 c -3.9116,3.2715 -28.792,-20.116 -33.88,-19.768 -5.0874,0.34753 -26.557,26.901 -30.877,24.192 -4.3201,-2.7092 10.234,-33.599 8.3312,-38.33 -1.9026,-4.731 -33.791,-16.944 -32.549,-21.89 1.2416,-4.9458 35.117,-0.6498 39.029,-3.9213 3.9116,-3.2715 5.6729,-37.373 10.76,-37.721 5.0874,-0.34753 11.47,33.198 15.79,35.907 4.3201,2.7092 37.297,-6.1537 39.2,-1.4226 1.9026,4.731 -28.029,21.167 -29.27,26.113 -1.2416,4.9458 17.378,33.57 13.466,36.841 z"
       transform="matrix(0.099256,-0.012174,0.012174,0.099256,37.157804,-10.193226)"
       style="fill:url(#radialGradient3024);filter:url(#filter3841)"
       inkscape:connector-curvature="0" />
    <path
       id="path3063"
       d="m 204.54,438.01 c 91.815,64.405 175.42,128.26 231,190.26 M 184.55,435.95 c 78.963,63.575 150.24,126.44 195.32,186.89 M 165.3,427.82 c 66.433,58.551 125.76,116.52 160.86,172.51 M 146.42,418.77 c 54.203,53.038 101.84,105.6 127.08,156.55 M 127.54,409.51 c 42.102,47.673 78.12,94.867 93.391,140.42 M 108.321,400.69 c 29.948,43.156 54.233,85.559 59.204,125.39 M 88.462,398.14 c 17.431,44.097 29.616,86.377 23.913,122.46 M 74.669,412.78 c 8.337,56.21 11.893,109.03 -0.855,150.31 M 62.529,429.02 c 0.074,68.544 -4.1052,132.45 -22.788,180.55 M 50.683,445.63 C 42.596,526.27 30.801,601.21 6.364,656.7 M 38.515,462.08 C 22.054,554.5 2.449,640.25 -27.879,703.28 M 25.079,477.52 c -25.727,103.43 -53.974,199.3 -90.812,269.41 m 76.484,-271.5 c -35.74,102.98 -73.264,198.07 -116.87,266.29 M 10.751,454.57 c -36.024,89.51 -73.706,171.72 -117.04,229.03 M 13.081,433.79 c -34.78,76.09 -71.17,145.46 -113.05,191.89 M 16.011,413.03 c -33.294,62.816 -68.108,119.42 -108.11,154.86 M 18.871,392.16 c -32.128,49.726 -65.554,93.653 -103.4,117.8 M 20.611,371.03 c -32.41,36.867 -65.548,68.179 -101.17,80.546 m 90.078,-95.73 c -42.392,28.14 -83.974,50.67 -122.8,54.11 m 103.98,-61.43 c -56.796,23.81 -111.28,42.05 -157.87,41.31 m 138.53,-47.566 c -70.973,19.812 -138.36,34.207 -193.52,30.132 m 174.05,-36.33 c -84.91,15.718 -165.1,26.228 -229.17,18.978 m 209.88,-25.847 c -98.575,11.119 -191.36,17.292 -264.4,6.5978 m 246.68,-16.549 c -111.25,4.401 -215.68,4.2595 -296.87,-11.372 m 308.72,-1.1924 c -104.19,-4.14 -201.64,-12.28 -276.04,-34.07 m 296.3,28.959 c -91.17,-7.7 -176.13,-19.15 -239.89,-43.4 m 260.45,39.51 c -78.021,-10.48 -150.34,-24.49 -203.22,-50.53 m 223.92,46.94 c -65.021,-13.2 -124.76,-29.66 -166.49,-57.23 m 187.23,53.25 c -52.394,-16.44 -99.743,-35.73 -129.89,-64.73 m 149.7,57.77 c -41.155,-22.52 -77.136,-47 -95.47,-78.18 m 99.723,58.679 c -40.067,-37.49 -74.355,-75.37 -88.935,-114.55 m 89.419,94.301 c -40.599,-52.39 -75.071,-103.81 -88.649,-151.9 m 88.49,131.52 c -41.145,-67.02 -75.956,-131.85 -89.163,-189.24 m 89.214,168.79 c -41.404,-81.49 -76.347,-159.68 -89.258,-226.6 m 90.509,206.16 c -40.761,-95.872 -75.018,-187.36 -87.093,-263.86 m 97.314,250.46 c -34.145,-105.86 -62.083,-206.38 -68.85,-288.69 m 82.141,304.65 C 32.867,88.9064 13.279,-1.8836 13.246,-75.6136 m 55.477,278.36 c -18.311,-84.26 -31.271,-163.96 -25.988,-228.13 m 35.876,246.6 c -11.696,-72.61 -18.413,-141.06 -8.154,-195.31 m 18.029,213.89 c -5.018,-61.23 -5.461,-118.54 9.697,-162.5 m 0.938,180.82 c 2.398,-50.66 8.838,-97.37 29.048,-130.56 m -12.71,140.44 c 14.414,-46.738 31.77,-88.714 59.159,-114.45 m -39.533,109.86 c 28.74,-51.549 59.156,-97.404 95.283,-123.84 m -75.94,117.67 c 42.62,-56.68 85.76,-106.99 130.73,-135.62 m -111.37,129.16 c 56.31,-61.63 112.1,-116.37 166.11,-147.62 m -146.54,141.63 c 70.04,-66.11 138.53,-124.9 201.77,-158.72 m -181.69,154.96 c 84.13,-69.04 165.66,-130.43 238.37,-165.75 m -234.14,179.79 c 87.794,-60.121 172.46,-112.93 246.46,-140.79 m -259.42,157.16 c 79.65,-49.364 156.45,-91.942 223.51,-111.38 m -237.75,126.71 c 70.685,-39.319 138.81,-72.343 198.21,-83.899 m -212.83,98.96 c 61.714,-29.471 121.08,-53.112 172.43,-56.874 m -186.95,72.173 c 53.221,-19.514 104.1,-33.661 147,-29.511 m -160.26,46.03 c 46.515,-8.5914 90.242,-12.387 124.46,0.17405 m -120.09,18.573 c 52.267,4.4025 100.35,12.691 134.16,34.232 m -122.9,-17.43 c 61.438,16.249 117.55,35.478 155.51,64.87 m -143.46,-48.47 c 70.523,27.785 134.81,57.687 177.85,94.809 m -165.79,-78.3 c 79.32,39.31 151.63,79.9 200.03,124.86 m -188.72,-107.8 c 87.493,51.176 167.28,102.79 220.81,155.89 m -215.39,-137.04 c 91.815,64.405 175.42,128.26 231,190.26"
       transform="matrix(0.037603,0,0,0.037603,66.788905,17.671573)"
       style="fill:url(#radialGradient3026);stroke:#541800;stroke-width:2.92529988;stroke-linecap:round;filter:url(#filter4120)"
       inkscape:connector-curvature="0" />
    <path
       transform="matrix(0.1,0,0,0.1,40.448905,-17.078426)"
       id="path3847"
       style="color:#000000;opacity:0.58846005;fill:#ffffff;stroke:#00ff00;stroke-width:0.1;filter:url(#filter3863)"
       d="m 454.9,602.04 -79.674,-123.65 90.223,-113.11 -7.6037,5.3051 -87.458,107.88 80.897,122.03 z"
       inkscape:connector-curvature="0" />
  </g>
  <!-- </g> -->
  <!--   <metadata>
    <rdf:RDF>
      <cc:Work>
        <dc:format>image/svg+xml</dc:format>
        <dc:type rdf:resource="http://purl.org/dc/dcmitype/StillImage"/>
        <cc:license rdf:resource="http://creativecommons.org/licenses/publicdomain/"/>
        <dc:publisher>
          <cc:Agent rdf:about="http://openclipart.org/">
            <dc:title>Openclipart</dc:title>
          </cc:Agent>
        </dc:publisher>
        <dc:title>Dark Star</dc:title>
        <dc:date>2011-08-29T08:35:47</dc:date>
        <dc:description>A Star with a dark design. Created with Inkscape.</dc:description>
        <dc:source>http://openclipart.org/detail/158467/dark-star-by-merlin2525</dc:source>
        <dc:creator>
          <cc:Agent>
            <dc:title>Merlin2525</dc:title>
          </cc:Agent>
        </dc:creator>
        <dc:subject>
          <rdf:Bag>
            <rdf:li>astronomia</rdf:li>
            <rdf:li>astronomie</rdf:li>
            <rdf:li>astronomy</rdf:li>
            <rdf:li>christmas</rdf:li>
            <rdf:li>clip art</rdf:li>
            <rdf:li>clipart</rdf:li>
            <rdf:li>cosmic</rdf:li>
            <rdf:li>cosmicos</rdf:li>
            <rdf:li>cosmique</rdf:li>
            <rdf:li>cosmo</rdf:li>
            <rdf:li>cosmos</rdf:li>
            <rdf:li>dark</rdf:li>
            <rdf:li>decoracion</rdf:li>
            <rdf:li>decoration</rdf:li>
            <rdf:li>decorative</rdf:li>
            <rdf:li>espace</rdf:li>
            <rdf:li>espacio</rdf:li>
            <rdf:li>estrella</rdf:li>
            <rdf:li>etoile</rdf:li>
            <rdf:li>l'astronomie</rdf:li>
            <rdf:li>navidad</rdf:li>
            <rdf:li>noel</rdf:li>
            <rdf:li>oscuro</rdf:li>
            <rdf:li>pascua</rdf:li>
            <rdf:li>sombre</rdf:li>
            <rdf:li>space</rdf:li>
            <rdf:li>star</rdf:li>
            <rdf:li>x-mas</rdf:li>
            <rdf:li>xmas</rdf:li>
          </rdf:Bag>
        </dc:subject>
      </cc:Work>
      <cc:License rdf:about="http://creativecommons.org/licenses/publicdomain/">
        <cc:permits rdf:resource="http://creativecommons.org/ns#Reproduction"/>
        <cc:permits rdf:resource="http://creativecommons.org/ns#Distribution"/>
        <cc:permits rdf:resource="http://creativecommons.org/ns#DerivativeWorks"/>
      </cc:License>
    </rdf:RDF>
  </metadata> -->
</svg>
