<?xml version="1.0" encoding="utf-8"?>
<svg width="800px" height="600px"
     xmlns="http://www.w3.org/2000/svg"
     xmlns:xhtml="http://www.w3.org/1999/xhtml"
     xmlns:xlink="http://www.w3.org/1999/xlink"
     xmlns:a="http://www.adobe.com/svg10-extensions" a:timeline="independent"
     onload="top.load(evt)">
     
  <!--           CSS Definition           -->
  <style type="text/css">
    .button {
      fill: white;
      fill-opacity: 0.5;
      stroke: green;
      stroke-width: 5;
    }

    .button_text {
      fill: red;
      font-family: Arial;
      font-size: 20px;
      text-anchor: middle;
    }
 
    .info_text{
      fill: #880000;
      font-family: Arial;
      font-size: 20px;
      text-anchor: middle;		
    }

    .info {
      fill: #000044;
      fill-opacity: 0.5;
      stroke: white;
      stroke-width: 5;
    }
    
    .instruction_text {
	  fill: blue;
	  font-size: 25px;
	}
	</style>

  <defs>
    <clipPath id="gameareaclip">
      <rect x="20" y="20" width="600" height="560"/>
    </clipPath>
    <pattern id="background_pattern" x="0" y="0" width="20" height="20" patternUnits="userSpaceOnUse">
      <rect width="20" height="20" style="fill:lightgreen"/>
      <circle cx="10" cy="10" r="8" style="fill:lightyellow"/>
    </pattern>
    <radialGradient id="player_color">
      <stop offset="0.0" style="stop-color:green;stop-opacity:1"/>
      <stop offset="0.8" style="stop-color:green;stop-opacity:1"/>
      <stop offset="1.0" style="stop-color:orange;stop-opacity:1"/>
    </radialGradient>
    <g id="monster">
      <svg
         xmlns:dc="http://purl.org/dc/elements/1.1/"
         xmlns:cc="http://creativecommons.org/ns#"
         xmlns:rdf="http://www.w3.org/1999/02/22-rdf-syntax-ns#"
         xmlns:svg="http://www.w3.org/2000/svg"
         xmlns="http://www.w3.org/2000/svg"
         xmlns:xlink="http://www.w3.org/1999/xlink"
         xmlns:sodipodi="http://sodipodi.sourceforge.net/DTD/sodipodi-0.dtd"
         xmlns:inkscape="http://www.inkscape.org/namespaces/inkscape"
         id="svg4720"
         viewBox=""
         version="1.1"
         inkscape:version="0.91 r13725"
         sodipodi:docname="SnowmanEmo_byRones.svg.xml.svg">
        <sodipodi:namedview
           pagecolor="#ffffff"
           bordercolor="#666666"
           borderopacity="1"
           objecttolerance="10"
           gridtolerance="10"
           guidetolerance="10"
           inkscape:pageopacity="0"
           inkscape:pageshadow="2"
           inkscape:window-width="1301"
           inkscape:window-height="744"
           id="namedview35"
           showgrid="false"
           inkscape:zoom="1.9592562"
           inkscape:cx="110.11322"
           inkscape:cy="562.52762"
           inkscape:window-x="65"
           inkscape:window-y="24"
           inkscape:window-maximized="1"
           inkscape:current-layer="svg4720" />
        <defs
           id="defs4722">
          <linearGradient
             id="linearGradient5279"
             x1="1408.6"
             xlink:href="#linearGradient4667"
             gradientUnits="userSpaceOnUse"
             y1="728.74"
             gradientTransform="translate(-1116.8,111.46)"
             x2="1451"
             y2="767.31" />
          <linearGradient
             id="linearGradient4667">
            <stop
               id="stop4669"
               stop-color="#fff"
               offset="0" />
            <stop
               id="stop4671"
               stop-color="#ffe8fa"
               stop-opacity="0"
               offset="1" />
          </linearGradient>
          <linearGradient
             id="linearGradient5281"
             x1="1435.4"
             xlink:href="#linearGradient4667"
             gradientUnits="userSpaceOnUse"
             y1="643.89"
             gradientTransform="translate(-1116.8,111.46)"
             x2="1453"
             y2="663.77" />
          <linearGradient
             id="linearGradient5283"
             x1="1502.6"
             xlink:href="#linearGradient4667"
             gradientUnits="userSpaceOnUse"
             y1="683.28"
             gradientTransform="translate(-1116.8,111.46)"
             x2="1524.2"
             y2="704.68" />
        </defs>
        <g
           transform="matrix(0.1344595,0,0,0.09415285,-184.80388,-47.593687)"
           id="g4564">
          <path
             style="fill:#ffaaee"
             inkscape:connector-curvature="0"
             d="m 1413.6,616.47 c -10.61,0 -19.215,9.0175 -19.215,20.154 0,11.127 8.6045,20.154 19.215,20.154 10.6105,0 19.215,-9.0269 19.215,-20.154 0,-11.136 -8.6046,-20.154 -19.215,-20.154 z"
             id="path4204" />
          <path
             style="opacity:0.22222003;fill:#8800ff"
             inkscape:connector-curvature="0"
             d="m 1421.8,618.47 c 0.5928,1.9407 0.9062,4.0084 0.9062,6.1562 0,11.127 -8.5771,20.156 -19.188,20.156 -2.9767,0 -5.7973,-0.73203 -8.3125,-2 2.4808,8.1189 9.7485,14 18.312,14 10.61,0 19.188,-9.0296 19.188,-20.156 0,-8.0169 -4.4493,-14.909 -10.906,-18.156 z"
             id="path4549" />
          <path
             style="opacity:0.66204002;fill:#c169ad"
             inkscape:connector-curvature="0"
             d="m 1582.1,856.29 c 0,5.7201 -44.931,10.357 -100.36,10.357 -55.426,0 -100.36,-4.637 -100.36,-10.357 0,-5.7201 44.931,-10.357 100.36,-10.357 55.426,0 100.36,4.637 100.36,10.357 z"
             transform="matrix(0.76083,0,0,0.4619,340.64,460.15)"
             id="path4642" />
          <path
             style="fill:#ffaaee"
             inkscape:connector-curvature="0"
             d="m 1468.4,697.76 c -45.028,0 -81.546,36.035 -81.546,80.504 0,44.469 36.518,80.504 81.546,80.504 45.047,0 81.546,-36.035 81.546,-80.504 0,-44.469 -36.499,-80.504 -81.546,-80.504 z"
             id="path4202" />
          <path
             inkscape:connector-curvature="0"
             style="opacity:0.61110995;fill:url(#linearGradient5279)"
             d="m 1458.9,712.54 c -32.517,0 -58.872,25.998 -58.872,58.111 0,17.549 7.8824,33.285 20.332,43.944 -7.8441,-9.8751 -12.54,-22.313 -12.54,-35.837 0,-32.113 26.38,-58.137 58.898,-58.137 14.75,0 28.209,5.3772 38.54,14.219 -10.779,-13.57 -27.53,-22.3 -46.358,-22.3 z"
             id="path4650" />
          <path
             style="fill:#ffaaee"
             inkscape:connector-curvature="0"
             d="m 1462.3,625.58 c -25.626,0 -46.397,20.557 -46.397,45.931 0,25.365 20.771,45.931 46.397,45.931 25.626,0 46.397,-20.566 46.397,-45.931 0,-25.375 -20.771,-45.931 -46.397,-45.931 z"
             id="path4206" />
          <path
             style="fill-rule:evenodd"
             inkscape:connector-curvature="0"
             d="m 1572.1,549.87 c -1.0886,0.011 -2.1393,0.71572 -2.5625,1.7188 l -54.015,123.36 11.719,6 56.796,-124.3 c 0.6526,-1.4527 -0.2259,-3.3821 -1.75,-3.8438 l -9.375,-2.8125 c -0.2628,-0.0811 -0.5375,-0.12336 -0.8125,-0.125 z"
             id="21" />
          <path
             style="fill-rule:evenodd"
             inkscape:connector-curvature="0"
             d="m 1437,520.52 c 47.97,-4.124 87.842,-12.925 116.92,34.625 3.922,-1.4603 7.0095,-5.6088 11.899,-5.7467 l -1.9375,9.75 c -0.2512,1.2751 0.5114,2.6755 1.7188,3.1562 l 13.562,5.2812 c 1.2431,0.48874 2.8046,-0.0599 3.4688,-1.2188 l 15.263,-28.384 c 2.1258,-8.6532 -16.37,-14.927 -18.106,-11.459 -0.051,-0.0275 -1.8729,2.9954 -1.924,2.968 -48.263,-26.041 -89.938,-33.46 -140.87,-8.9714 z"
             id="23" />
          <path
             style="opacity:0.22222003;fill:#8800ff"
             inkscape:connector-curvature="0"
             d="m 1526,721.34 c 8.7528,12.83 13.875,28.27 13.875,44.906 0,44.469 -36.515,80.531 -81.562,80.531 -22.514,0 -42.898,-9.0263 -57.656,-23.594 14.648,21.466 39.473,35.594 67.656,35.594 45.047,0 81.562,-36.062 81.562,-80.531 0,-22.234 -9.1193,-42.339 -23.875,-56.906 z"
             transform="matrix(0.93045,0,0,0.93045,102.61,54.951)"
             id="path4547" />
          <path
             style="opacity:0.22222003;fill:#8800ff"
             inkscape:connector-curvature="0"
             d="m 1492.5,636.69 c 3.8973,6.7242 6.125,14.502 6.125,22.812 0,25.365 -20.749,45.938 -46.375,45.938 -11.568,0 -22.156,-4.1935 -30.281,-11.125 7.9982,13.819 23.039,23.125 40.281,23.125 25.626,0 46.375,-20.572 46.375,-45.938 0,-13.924 -6.2459,-26.391 -16.125,-34.812 z"
             id="path4551" />
          <path
             style="fill:#ffaaee"
             inkscape:connector-curvature="0"
             d="m 1513.6,674.6 c -10.61,0 -19.215,9.0175 -19.215,20.154 0,11.127 8.6045,20.154 19.215,20.154 10.6105,0 19.215,-9.0269 19.215,-20.154 0,-11.136 -8.6046,-20.154 -19.215,-20.154 z"
             id="path4220" />
          <path
             style="opacity:0.22222003;fill:#8800ff"
             inkscape:connector-curvature="0"
             d="m 1521.9,676.59 c 0.598,1.9484 0.9374,3.9986 0.9374,6.1562 0,11.127 -8.6083,20.156 -19.219,20.156 -2.9745,0 -5.7674,-0.73378 -8.2813,-2 2.4809,8.1189 9.7173,14 18.281,14 10.61,0 19.219,-9.0296 19.219,-20.156 0,-8.0169 -4.4805,-14.909 -10.937,-18.156 z"
             id="path4555" />
          <path
             inkscape:connector-curvature="0"
             style="opacity:0.61110995;fill:url(#linearGradient5281)"
             d="m 1460.6,632.16 c -20.656,0 -37.396,16.514 -37.396,36.913 0,11.147 5.007,21.143 12.915,27.914 -4.9827,-6.2728 -7.9659,-14.173 -7.9659,-22.764 0,-20.399 16.757,-36.93 37.413,-36.93 9.3697,0 17.919,3.4157 24.481,9.0325 -6.847,-8.6196 -17.487,-14.165 -29.447,-14.165 z"
             id="path4675" />
          <path
             inkscape:connector-curvature="0"
             style="opacity:0.61110995;fill:url(#linearGradient5283)"
             d="m 1503,703.24 c -5.2695,-6.9109 1.817,-16.735 3.2279,-17.922 1.6863,-1.4184 11.422,-8.8448 20.235,-2.2959 -5.5446,-10.531 -18.026,-7.177 -23.926,-0.68142 -5.9003,6.4956 -6.0573,15.29 0.464,20.899 z"
             id="path4679" />
          <path
             style="fill-rule:evenodd"
             inkscape:connector-curvature="0"
             d="m 1435.6,574.22 -10.885,9.5344 c 0.01,0.18106 -2e-4,0.34916 0.016,0.53192 0.459,5.1539 5.0067,8.9662 10.17,8.5064 5.1535,-0.45896 8.9654,-5.0158 8.5064,-10.17 -0.3875,-4.3513 -3.696,-7.7211 -7.8074,-8.4031 z"
             id="path4198" />
          <path
             style="fill-rule:evenodd"
             inkscape:connector-curvature="0"
             d="m 1440.5,570.44 c 27.85,-13.723 56.623,5.2736 55.749,34.014 l 21.379,-48.208 c -1.9539,-15.006 -16.896,-26.662 -30.931,-27.184 L 1440.5,570.44 Z"
             id="path4212" />
          <path
             style="fill:#ffaaee"
             inkscape:connector-curvature="0"
             d="m 1460.9,564.09 c -19.674,0 -35.618,15.738 -35.618,35.152 0,19.413 15.944,35.152 35.618,35.152 19.674,0 35.618,-15.738 35.618,-35.152 0,-19.413 -15.944,-35.152 -35.618,-35.152 z"
             id="path4200" />
          <path
             style="opacity:0.22222003;fill:#8800ff"
             inkscape:connector-curvature="0"
             d="m 1482.7,571.47 c 2.4203,4.7459 3.7813,10.106 3.7813,15.781 0,19.413 -15.92,35.156 -35.594,35.156 -8.2319,0 -15.813,-2.7794 -21.844,-7.4062 5.8567,11.492 17.918,19.406 31.844,19.406 19.674,0 35.594,-15.743 35.594,-35.156 0,-11.298 -5.388,-21.35 -13.781,-27.781 z"
             id="path4553" />
          <path
             style="fill-rule:evenodd"
             inkscape:connector-curvature="0"
             d="m 1431.8,588.46 -57.266,10.398 59.453,8.5284 c 6.3307,-5.7155 4.4398,-15.15 -2.1865,-18.927 z"
             id="path4208" />
          <path
             style="fill-rule:evenodd"
             inkscape:connector-curvature="0"
             d="m 2562.3,464.09 c -1.5443,1.6692 -2.5,3.8838 -2.5,6.3438 0,5.1743 4.1916,9.375 9.375,9.375 3.9144,0 7.2535,-2.4012 8.6563,-5.8125 l -15.531,-9.9062 z"
             transform="translate(-1116.8,111.46)"
             id="path4210" />
          <path
             style="fill-rule:evenodd"
             inkscape:connector-curvature="0"
             d="m 1502,704.58 -63.284,143.92 c -1.912,4.3482 9.7369,10.375 11.732,5.8892 l 63.439,-142.65 c -0.051,-5.4452 -6.1372,-8.7931 -11.886,-7.1673 z"
             id="25" />
        </g>
      </svg>

    </g>
    <g id="special_monster">
      <svg
         xmlns:dc="http://purl.org/dc/elements/1.1/"
         xmlns:cc="http://creativecommons.org/ns#"
         xmlns:rdf="http://www.w3.org/1999/02/22-rdf-syntax-ns#"
         xmlns:svg="http://www.w3.org/2000/svg"
         xmlns="http://www.w3.org/2000/svg"
         xmlns:xlink="http://www.w3.org/1999/xlink"
         xmlns:sodipodi="http://sodipodi.sourceforge.net/DTD/sodipodi-0.dtd"
         xmlns:inkscape="http://www.inkscape.org/namespaces/inkscape"
         id="svg4720"
         viewBox=""
         version="1.1"
         inkscape:version="0.91 r13725"
         sodipodi:docname="SnowmanEmo_byRones.svg.xml.svg">
        <sodipodi:namedview
           pagecolor="#ffffff"
           bordercolor="#666666"
           borderopacity="1"
           objecttolerance="10"
           gridtolerance="10"
           guidetolerance="10"
           inkscape:pageopacity="0"
           inkscape:pageshadow="2"
           inkscape:window-width="1301"
           inkscape:window-height="744"
           id="namedview35"
           showgrid="false"
           inkscape:zoom="11.083227"
           inkscape:cx="10.904073"
           inkscape:cy="91.167609"
           inkscape:window-x="65"
           inkscape:window-y="24"
           inkscape:window-maximized="1"
           inkscape:current-layer="svg4720" />
        <defs
           id="defs4722">
          <linearGradient
             id="linearGradient5279"
             x1="1408.6"
             xlink:href="#linearGradient4667"
             gradientUnits="userSpaceOnUse"
             y1="728.74"
             gradientTransform="matrix(0.1344595,0,0,0.09415285,-334.96825,-37.09941)"
             x2="1451"
             y2="767.31" />
          <linearGradient
             id="linearGradient4667">
            <stop
               id="stop4669"
               stop-color="#fff"
               offset="0" />
            <stop
               id="stop4671"
               stop-color="#ffe8fa"
               stop-opacity="0"
               offset="1" />
          </linearGradient>
          <linearGradient
             id="linearGradient5281"
             x1="1435.4"
             xlink:href="#linearGradient4667"
             gradientUnits="userSpaceOnUse"
             y1="643.89"
             gradientTransform="matrix(0.1344595,0,0,0.09415285,-334.96825,-37.09941)"
             x2="1453"
             y2="663.77" />
          <linearGradient
             id="linearGradient5283"
             x1="1502.6"
             xlink:href="#linearGradient4667"
             gradientUnits="userSpaceOnUse"
             y1="683.28"
             gradientTransform="matrix(0.1344595,0,0,0.09415285,-334.96825,-37.09941)"
             x2="1524.2"
             y2="704.68" />
        </defs>
        <path
           id="path4204"
           d="m 5.2680692,10.44872 c -1.4266153,0 -2.5836393,0.849024 -2.5836393,1.897557 0,1.047639 1.1569568,1.897557 2.5836393,1.897557 1.4266825,0 2.5836393,-0.849909 2.5836393,-1.897557 0,-1.048486 -1.1569702,-1.897557 -2.5836393,-1.897557 z"
           inkscape:connector-curvature="0"
           style="fill:#ff0000" />
        <path
           id="path4549"
           d="m 6.3706371,10.637026 c 0.079708,0.182723 0.1218472,0.377402 0.1218472,0.579624 0,1.047639 -1.1532726,1.897745 -2.5800089,1.897745 -0.4002456,0 -0.779502,-0.06892 -1.1176946,-0.188306 0.3335671,0.764418 1.3107785,1.31814 2.4622224,1.31814 1.4266153,0 2.5800089,-0.850163 2.5800089,-1.897745 0,-0.754814 -0.5982507,-1.403725 -1.4664153,-1.709439 z"
           inkscape:connector-curvature="0"
           style="opacity:0.22222003;fill:#8800ff" />
        <path
           id="path4642"
           d="m 22.848527,32.970114 c 0,0.248763 -4.596478,0.450418 -10.26691,0.450418 -5.6701252,0 -10.2669103,-0.20166 -10.2669103,-0.450418 0,-0.248763 4.5964782,-0.450418 10.2669103,-0.450418 5.670125,0 10.26691,0.20166 10.26691,0.450418 z"
           inkscape:connector-curvature="0"
           style="opacity:0.66204002;fill:#c169ad" />
        <path
           id="path4202"
           d="m 12.63645,18.102406 c -6.0544426,0 -10.9646346,3.392798 -10.9646346,7.579681 0,4.186883 4.910192,7.579681 10.9646346,7.579681 6.056997,0 10.964634,-3.392798 10.964634,-7.579681 0,-4.186883 -4.907637,-7.579681 -10.964634,-7.579681 z"
           inkscape:connector-curvature="0"
           style="fill:#ff0000" />
        <path
           id="path4650"
           d="m 11.359085,19.493985 c -4.37222,0 -7.9159001,2.447786 -7.9159001,5.471316 0,1.652288 1.0598635,3.133878 2.7338305,4.137453 -1.0547137,-0.929769 -1.6861221,-2.100833 -1.6861221,-3.374156 0,-3.02353 3.5470416,-5.473764 7.9193957,-5.473764 1.983278,0 3.792968,0.506279 5.182069,1.338759 -1.449339,-1.277654 -3.70167,-2.099608 -6.233273,-2.099608 z"
           style="opacity:0.61110995;fill:url(#linearGradient5279)"
           inkscape:connector-curvature="0" />
        <path
           id="path4206"
           d="m 11.816247,11.306453 c -3.4456593,0 -6.2385176,1.9355 -6.2385176,4.324534 0,2.388187 2.7928583,4.324535 6.2385176,4.324535 3.445659,0 6.238517,-1.936348 6.238517,-4.324535 0,-2.389128 -2.792858,-4.324534 -6.238517,-4.324534 z"
           inkscape:connector-curvature="0"
           style="fill:#ff0000" />
        <path
           id="21"
           d="m 26.5799,4.1781406 c -0.146373,0.00104 -0.287649,0.067387 -0.344553,0.1618299 L 18.972518,15.954666 20.548248,16.519583 28.18501,4.816384 C 28.272759,4.6796081 28.154636,4.4979496 27.949706,4.4544792 L 26.689148,4.1896744 c -0.03534,-0.00764 -0.07227,-0.011615 -0.109248,-0.011769 z"
           inkscape:connector-curvature="0"
           style="fill-rule:evenodd" />
        <path
           id="23"
           d="M 8.4144215,1.4147545 C 14.864444,1.0264681 20.225613,0.1978289 24.135426,4.6747969 24.662776,4.5373055 25.07792,4.1467124 25.73536,4.1337287 L 25.474845,5.051719 c -0.03378,0.1200543 0.06876,0.251906 0.231109,0.2971652 l 1.823539,0.4972401 c 0.167147,0.046016 0.377105,-0.00564 0.466413,-0.1147535 L 30.048162,3.0589363 C 30.333996,2.2442128 27.84706,1.6535167 27.613638,1.9800388 c -0.0069,-0.00259 -0.251829,0.2820254 -0.2587,0.2794456 C 20.865519,-0.19234993 15.261919,-0.89086992 8.4136282,1.4148016 Z"
           inkscape:connector-curvature="0"
           style="fill-rule:evenodd" />
        <path
           id="path4547"
           d="m 19.907574,20.77275 c 1.095044,1.123966 1.735871,2.47658 1.735871,3.933969 0,3.895685 -4.568313,7.05488 -10.204046,7.05488 -2.8166774,0 -5.3668756,-0.790745 -7.2132171,-2.066941 1.8325796,1.880518 4.9383817,3.118195 8.4642961,3.118195 5.635733,0 10.204046,-3.159194 10.204046,-7.05488 0,-1.947799 -1.140896,-3.709088 -2.98695,-4.985223 z"
           inkscape:connector-curvature="0"
           style="opacity:0.22222003;fill:#8800ff" />
        <path
           id="path4551"
           d="m 15.876924,12.352491 c 0.524029,0.633103 0.823564,1.365405 0.823564,2.147815 0,2.388187 -2.7899,4.325194 -6.235559,4.325194 -1.5554276,0 -2.9790848,-0.39483 -4.0715682,-1.047451 1.0754339,1.301098 3.0978124,2.177285 5.4161632,2.177285 3.445659,0 6.235559,-1.936913 6.235559,-4.325194 0,-1.310984 -0.83982,-2.484788 -2.168159,-3.277649 z"
           inkscape:connector-curvature="0"
           style="opacity:0.22222003;fill:#8800ff" />
        <path
           id="path4220"
           d="m 18.714019,15.921826 c -1.426615,0 -2.583639,0.849023 -2.583639,1.897556 0,1.047639 1.156957,1.897557 2.583639,1.897557 1.426683,0 2.583639,-0.849909 2.583639,-1.897557 0,-1.048486 -1.15697,-1.897556 -2.583639,-1.897556 z"
           inkscape:connector-curvature="0"
           style="fill:#ff0000" />
        <path
           id="path4555"
           d="m 19.830033,16.10919 c 0.08041,0.183447 0.126042,0.376479 0.126042,0.579624 0,1.047638 -1.157467,1.897744 -2.584177,1.897744 -0.39995,0 -0.775481,-0.06909 -1.113499,-0.188305 0.33358,0.764417 1.306583,1.31814 2.458054,1.31814 1.426615,0 2.584177,-0.850163 2.584177,-1.897745 0,-0.754814 -0.602446,-1.403725 -1.470584,-1.709439 z"
           inkscape:connector-curvature="0"
           style="opacity:0.22222003;fill:#8800ff" />
        <path
           id="path4675"
           d="m 11.587666,11.925979 c -2.7773957,0 -5.0282478,1.55484 -5.0282478,3.475464 0,1.049522 0.6732388,1.990674 1.7365445,2.628182 -0.6699714,-0.590602 -1.071091,-1.334428 -1.071091,-2.143295 0,-1.920624 2.2531379,-3.477065 5.0305333,-3.477065 1.259845,0 2.40938,0.321598 3.291703,0.850436 -0.920644,-0.81156 -2.351293,-1.333675 -3.959429,-1.333675 z"
           style="opacity:0.61110995;fill:url(#linearGradient5281)"
           inkscape:connector-curvature="0" />
        <path
           id="path4679"
           d="m 17.288749,18.618363 c -0.708535,-0.650681 0.244312,-1.575648 0.434021,-1.687407 0.226739,-0.133547 1.535797,-0.832763 2.720788,-0.216166 -0.745524,-0.991523 -2.423767,-0.675735 -3.217078,-0.06416 -0.793351,0.611579 -0.814461,1.439597 0.06239,1.9677 z"
           style="opacity:0.61110995;fill:url(#linearGradient5283)"
           inkscape:connector-curvature="0" />
        <path
           id="path4198"
           d="m 8.2261782,6.4707625 -1.4635917,0.897691 c 0.00134,0.017047 -2.68e-5,0.032874 0.00215,0.050082 C 6.8264548,7.9037896 7.4379363,8.2627285 8.132191,8.219437 8.825128,8.1762247 9.3376742,7.7471852 9.2759573,7.2619026 9.2238542,6.8522153 8.778995,6.534939 8.2261782,6.4707267 Z"
           inkscape:connector-curvature="0"
           style="fill-rule:evenodd" />
        <path
           id="path4212"
           d="M 8.8850298,6.1148648 C 12.629727,4.8228052 16.49853,6.6113892 16.381012,9.3173798 l 2.87461,-4.5389206 C 18.992902,3.3656015 16.983794,2.2681559 15.096655,2.2190081 L 8.8850298,6.1148648 Z"
           inkscape:connector-curvature="0"
           style="fill-rule:evenodd" />
        <path
           id="path4200"
           d="m 11.628004,5.5169942 c -2.6453567,0 -4.7891789,1.4817775 -4.7891789,3.3096609 0,1.8277889 2.1438222,3.3096609 4.7891789,3.3096609 2.645356,0 4.789178,-1.481777 4.789178,-3.3096609 0,-1.8277892 -2.143822,-3.3096609 -4.789178,-3.3096609 z"
           inkscape:connector-curvature="0"
           style="fill:#ff0000" />
        <path
           id="path4553"
           d="m 14.559221,6.2118422 c 0.325432,0.44684 0.508431,0.9515087 0.508431,1.4858261 0,1.8277893 -2.140595,3.3100377 -4.785951,3.3100377 -1.1068572,0 -2.1262082,-0.261689 -2.9371334,-0.697315 0.787489,1.082005 2.4092453,1.82713 4.2817284,1.82713 2.645356,0 4.785951,-1.482248 4.785951,-3.3100373 0,-1.0637389 -0.724467,-2.0101634 -1.852986,-2.6156603 z"
           inkscape:connector-curvature="0"
           style="opacity:0.22222003;fill:#8800ff" />
        <path
           id="path4208"
           d="M 7.7152321,7.8114991 0.01527437,8.7905004 8.009295,9.5934736 C 8.8605178,9.055343 8.6062683,8.1670579 7.7152993,7.8114426 Z"
           inkscape:connector-curvature="0"
           style="fill-rule:evenodd" />
        <path
           id="path4210"
           d="M 9.5573269,6.5959862 C 9.349681,6.7531461 9.2211781,6.961657 9.2211781,7.193273 c 0,0.4871751 0.5636004,0.882683 1.2605579,0.882683 0.526328,0 0.975302,-0.2260798 1.163922,-0.5472635 L 9.5573672,6.5959956 Z"
           inkscape:connector-curvature="0"
           style="fill-rule:evenodd" />
        <path
           id="25"
           d="M 17.154289,18.744528 8.645154,32.295006 c -0.2570866,0.409396 1.3092187,0.976836 1.577479,0.554485 l 8.529976,-13.430904 c -0.0069,-0.512681 -0.825205,-0.827895 -1.598186,-0.674822 z"
           inkscape:connector-curvature="0"
           style="fill-rule:evenodd" />

      </svg>
    </g>
    <g id="bullet">
      <circle cx="5" cy="5" r="5" style="fill:black"/>
      <circle cx="6" cy="3" r="1" style="fill:pink"/>
    </g>
    <g id="name">
	<text id="name_value" x="0" y="0"
   style="fill:cadetblue;font-size:16px;text-anchor:middle">Anonymous</text>
	</g>
	<g id="exit">
	  <path d="M0,0 H50 V20 H0 Z" style="fill:none;stroke:black"/>
	  <path d="M25,20 V35" style="fill:none;stroke:black" />
	<text x="25" y="15" style="fill:black;font-size:15px;text-anchor:middle">Exit</text>
	</g>door
	
	<g id="portal">
		<rect x="0" y="0" width="40" height="80" style="fill:yellow" />
		<rect x="0" y="0" width="40" height="20" style="fill:lightblue" />
		<text x="1" y="15" style="font-size: 14px">Portal</text>
	</g>
	
	<g id="good_thing">
	  <circle cx="5" cy="5" r="5" style="fill:blue; stroke:blue" />
	</g>
  </defs>

  <rect width="100%" height="100%" style="fill:url(#background_pattern);stroke:orange;stroke-width:4" />

  <rect x="20" y="20" width="600" height="560" style="fill:black;stroke:red;stroke-width:5" />
  
<g transform="translate(640, 120)">
  <text x="70" y="0"
   style="fill:red;font-size:25px;font-weight:bold;text-anchor:middle">
    Score:
  </text>
  <rect x="0" y="10" width="140" height="35" style="fill:white" />
  <text id="score" x="70" y="36"
   style="fill:red;font-size:25px;text-anchor:middle">0</text>
   
  <text x="70" y="80"
   style="fill:red;font-size:25px;font-weight:bold;text-anchor:middle">
    Level:
  </text>
  <rect x="0" y="90" width="140" height="35" style="fill:white" />
  <text id="level" x="70" y="116"
   style="fill:red;font-size:25px;text-anchor:middle">0</text>
   
  <text x="70" y="160"
   style="fill:red;font-size:25px;font-weight:bold;text-anchor:middle">
    Bullet:
  </text>
  <rect x="0" y="170" width="140" height="35" style="fill:white" />
  <text id="bulletNum" x="70" y="196"
   style="fill:red;font-size:25px;text-anchor:middle">0</text>
   <text x="70" y="240"
   style="fill:red;font-size:25px;font-weight:bold;text-anchor:middle">
    Time:
  </text>
  <rect x="0" y="250" width="140" height="35" style="fill:white" />
  <rect id="time_remaining_bar" x="0" y="250" width="140" height="35" style="fill:blue; fill-opacity: 0.2;" />
  <text id="time_remaining" x="70" y="276"
   style="fill:red;font-size:25px;text-anchor:middle">0</text>
</g>


  <g style="clip-path:url(#gameareaclip)">
    <g transform="translate(20,20)">
      <g id="gamearea" transform="translate(0,0)" width="600" height="560">
        <rect x="0" y="0" width="600" height="560" style="fill:white" />

        <g id="platforms">
            <!-- 60 -->
            <rect style="fill:green" width="60" height="20" x="0" y="60"/>

            <!-- 80 -->
            <rect style="fill:green" width="20" height="20" x="40" y="80"/>

            <!-- 100 -->
            <rect style="fill:green" width="140" height="20" x="40" y="100"/>
            <rect style="fill:green" width="120" height="20" x="260" y="100"/>

            <!-- 120 -->

            <!-- 140 -->
            <rect style="fill:green" width="40" height="20" x="560" y="140"/>

            <!-- 160 -->
            <rect style="fill:green" width="60" height="20" x="540" y="160"/>

            <!-- 180 -->
            <rect style="fill:green" width="20" height="20" x="0" y="180"/>
            <rect style="fill:green" width="80" height="20" x="520" y="180"/>

            <!-- 200 -->
            <rect style="fill:green" width="20" height="20" x="0" y="200"/>

            <!-- 220 -->
            <rect style="fill:green" width="80" height="20" x="0" y="220"/>

            <!-- 240 -->
            <rect style="fill:green" width="20" height="20" x="240" y="240"/>

            <!-- 260 -->
            <rect style="fill:green" width="60" height="20" x="220" y="260"/>

            <!-- 280 -->
            <rect style="fill:green" width="100" height="20" x="200" y="280"/>

            <!-- 300 -->
            <rect style="fill:green" width="100" height="20" x="120" y="300"/>
            <rect style="fill:green" width="40" height="20" x="280" y="300"/>
            <rect id="movingVerticalPlatform" style="fill:black" width="40" height="20" x="440" y="300"/>

            <!-- 320 -->
            <rect style="fill:green" width="40" height="20" x="0" y="320"/>
            <rect style="fill:green" width="60" height="20" x="280" y="320"/>
            <rect style="fill:green" width="20" height="20" x="380" y="320"/>

            <!-- 340 -->
            <rect style="fill:green" width="60" height="20" x="0" y="340"/>
            <rect style="fill:green" width="20" height="20" x="320" y="340"/>
            <rect style="fill:green" width="60" height="20" x="380" y="340"/>

            <!-- 360 -->
            <rect style="fill:green" width="120" height="20" x="0" y="360"/>
            <rect style="fill:green" width="20" height="20" x="320" y="360"/>
            <rect style="fill:green" width="120" height="20" x="380" y="360"/>

            <!-- 380 -->
            <rect style="fill:green" width="100" height="20" x="0" y="380"/>
            <rect style="fill:green" width="20" height="20" x="220" y="380"/>
            <rect style="fill:green" width="20" height="20" x="580" y="380"/>

            <!-- 400 -->
            <rect style="fill:green" width="80" height="20" x="180" y="400"/>
            <rect style="fill:green" width="40" height="20" x="560" y="400"/>

            <!-- 420 -->
            <rect style="fill:green" width="120" height="20" x="160" y="420"/>
            <rect style="fill:green" width="60" height="20" x="540" y="420"/>

            <!-- 440 -->
            <rect style="fill:green" width="100" height="20" x="140" y="440"/>
            <rect style="fill:green" width="20" height="20" x="440" y="440"/>
            <rect style="fill:green" width="60" height="20" x="500" y="440"/>

            <!-- 460 -->
            <rect style="fill:green" width="60" height="20" x="120" y="460"/>
            <rect style="fill:green" width="60" height="20" x="400" y="460"/>

            <!-- 480 -->
            <rect style="fill:green" width="40" height="20" x="0" y="480"/>
            <rect style="fill:green" width="60" height="20" x="380" y="480"/>

            <!-- 500 -->
            <rect style="fill:green" width="60" height="20" x="0" y="500"/>
            <rect style="fill:green" width="20" height="20" x="260" y="500"/>

            <!-- 520 -->
            <rect style="fill:green" width="80" height="20" x="0" y="520"/>
            <rect style="fill:green" width="20" height="20" x="140" y="520"/>
            <rect style="fill:green" width="80" height="20" x="240" y="520"/>
            <rect style="fill:green" width="20" height="20" x="500" y="520"/>

            <!-- the floor -->
            <rect style="fill:green" width="600" height="20" x="0" y="540"/>
        </g>
		<g id="exit_door" />
		<g>
        	<use id="portal1" xlink:href="#portal" x="40" y="140" />
        </g>
        <g>
        	<use id="portal2" xlink:href="#portal" x="300" y="20" />
        </g>
        <g id="monsters"/>
        <g id="bullets"/>
		<g id="player_name" />
		<g id="good_things" />
		
        <g id="player">
          <svg
             xmlns:dc="http://purl.org/dc/elements/1.1/"
             xmlns:cc="http://creativecommons.org/ns#"
             xmlns:rdf="http://www.w3.org/1999/02/22-rdf-syntax-ns#"
             xmlns:svg="http://www.w3.org/2000/svg"
             xmlns="http://www.w3.org/2000/svg"
             xmlns:sodipodi="http://sodipodi.sourceforge.net/DTD/sodipodi-0.dtd"
             xmlns:inkscape="http://www.inkscape.org/namespaces/inkscape"
             id="svg3044"
             viewBox=""
             version="1.1"
             inkscape:version="0.91 r13725"
             sodipodi:docname="editedstar.xml.svg">
            <metadata
               id="metadata36">
              <rdf:RDF>
                <cc:Work
                   rdf:about="">
                  <dc:format>image/svg+xml</dc:format>
                  <dc:type
                     rdf:resource="http://purl.org/dc/dcmitype/StillImage" />
                  <dc:title />
                </cc:Work>
              </rdf:RDF>
            </metadata>
            <sodipodi:namedview
               pagecolor="#ffffff"
               bordercolor="#666666"
               borderopacity="1"
               objecttolerance="10"
               gridtolerance="10"
               guidetolerance="10"
               inkscape:pageopacity="0"
               inkscape:pageshadow="2"
               inkscape:window-width="1301"
               inkscape:window-height="744"
               id="namedview34"
               showgrid="false"
               inkscape:zoom="3.337544"
               inkscape:cx="69.127827"
               inkscape:cy="58.421427"
               inkscape:window-x="65"
               inkscape:window-y="24"
               inkscape:window-maximized="1"
               inkscape:current-layer="svg3044" />
            <defs
               id="defs3046">
              <filter
                 id="filter4120"
                 color-interpolation-filters="sRGB">
                <feGaussianBlur
                   id="feGaussianBlur4122"
                   stdDeviation="4.2825238" />
              </filter>
              <filter
                 id="filter4231"
                 color-interpolation-filters="sRGB">
                <feGaussianBlur
                   id="feGaussianBlur4233"
                   stdDeviation="3.0613974" />
              </filter>
              <filter
                 id="filter4247"
                 color-interpolation-filters="sRGB">
                <feGaussianBlur
                   id="feGaussianBlur4249"
                   stdDeviation="9.9908323" />
              </filter>
              <radialGradient
                 id="radialGradient3024"
                 gradientUnits="userSpaceOnUse"
                 cy="435.34"
                 cx="273"
                 gradientTransform="matrix(1.2419,0.036741,-0.033989,1.1489,-51.23,-74.837)"
                 r="57.17">
                <stop
                   id="stop3971"
                   stop-color="#fcfc80"
                   offset="0" />
                <stop
                   id="stop3977"
                   stop-color="#dcb028"
                   offset=".5" />
                <stop
                   id="stop3973"
                   stop-color="#b07400"
                   offset="1" />
              </radialGradient>
              <radialGradient
                 id="radialGradient3026"
                 gradientUnits="userSpaceOnUse"
                 cy="309.49"
                 cx="84.079"
                 gradientTransform="matrix(1.0946,-0.04248,0.036053,0.92899,-19.11,25.45)"
                 r="425.77">
                <stop
                   id="stop4005"
                   stop-color="#ff0"
                   offset="0" />
                <stop
                   id="stop4007"
                   stop-color="#fc0"
                   offset=".5665" />
                <stop
                   id="stop4009"
                   stop-color="#f00"
                   offset="1" />
              </radialGradient>
              <filter
                 id="filter3841"
                 height="1.3582"
                 width="1.3619"
                 y="-.17908"
                 x="-.18093"
                 color-interpolation-filters="sRGB">
                <feGaussianBlur
                   id="feGaussianBlur3843"
                   stdDeviation="7.7867205" />
              </filter>
              <filter
                 id="filter3863"
                 color-interpolation-filters="sRGB">
                <feGaussianBlur
                   id="feGaussianBlur3865"
                   stdDeviation="3.4564773" />
              </filter>
              <filter
                 id="filter3891"
                 color-interpolation-filters="sRGB">
                <feGaussianBlur
                   id="feGaussianBlur3893"
                   stdDeviation="4.8686335" />
              </filter>
            </defs>
            <!-- <g id="layer1" transform=""> -->
            <g
               id="g3373"
               transform="translate(-47.639821,-8.9886455)">
              <path
                 id="path4190"
                 d="m 86.653905,43.983573 c -0.3898,0.47808 -13.953,-5.2703 -14.549,-5.1127 -0.59636,0.15766 -9.5464,11.858 -10.122,11.635 -0.57514,-0.22298 0.70076,-14.898 0.36653,-15.417 -0.33423,-0.51845 -14.228,-5.4148 -14.193,-6.0307 0.03434,-0.6159 14.386,-3.9374 14.776,-4.4155 0.3898,-0.47808 0.75327,-15.2039999 1.3496,-15.3619999 0.59636,-0.15766 8.1902,12.4649999 8.7653,12.6879999 0.57514,0.22298 14.693,-3.982 15.027,-3.4636 0.33423,0.51846 -9.324,11.641 -9.3584,12.257 -0.03434,0.61589 8.3275,12.743 7.9377,13.222 z"
                 inkscape:connector-curvature="0"
                 style="stroke:#d09c14;stroke-width:0.2045;stroke-linecap:round" />
              <path
                 id="path3939"
                 d="m 309.56,481.75 c -3.9116,3.2715 -28.792,-20.116 -33.88,-19.768 -5.0874,0.34753 -26.557,26.901 -30.877,24.192 -4.3201,-2.7092 10.234,-33.599 8.3312,-38.33 -1.9026,-4.731 -33.791,-16.944 -32.549,-21.89 1.2416,-4.9458 35.117,-0.6498 39.029,-3.9213 3.9116,-3.2715 5.6729,-37.373 10.76,-37.721 5.0874,-0.34753 11.47,33.198 15.79,35.907 4.3201,2.7092 37.297,-6.1537 39.2,-1.4226 1.9026,4.731 -28.029,21.167 -29.27,26.113 -1.2416,4.9458 17.378,33.57 13.466,36.841 z"
                 transform="matrix(0.099256,-0.012174,0.012174,0.099256,37.157804,-10.193226)"
                 style="fill:url(#radialGradient3024);filter:url(#filter3841)"
                 inkscape:connector-curvature="0" />
              <path
                 id="path3063"
                 d="m 204.54,438.01 c 91.815,64.405 175.42,128.26 231,190.26 M 184.55,435.95 c 78.963,63.575 150.24,126.44 195.32,186.89 M 165.3,427.82 c 66.433,58.551 125.76,116.52 160.86,172.51 M 146.42,418.77 c 54.203,53.038 101.84,105.6 127.08,156.55 M 127.54,409.51 c 42.102,47.673 78.12,94.867 93.391,140.42 M 108.321,400.69 c 29.948,43.156 54.233,85.559 59.204,125.39 M 88.462,398.14 c 17.431,44.097 29.616,86.377 23.913,122.46 M 74.669,412.78 c 8.337,56.21 11.893,109.03 -0.855,150.31 M 62.529,429.02 c 0.074,68.544 -4.1052,132.45 -22.788,180.55 M 50.683,445.63 C 42.596,526.27 30.801,601.21 6.364,656.7 M 38.515,462.08 C 22.054,554.5 2.449,640.25 -27.879,703.28 M 25.079,477.52 c -25.727,103.43 -53.974,199.3 -90.812,269.41 m 76.484,-271.5 c -35.74,102.98 -73.264,198.07 -116.87,266.29 M 10.751,454.57 c -36.024,89.51 -73.706,171.72 -117.04,229.03 M 13.081,433.79 c -34.78,76.09 -71.17,145.46 -113.05,191.89 M 16.011,413.03 c -33.294,62.816 -68.108,119.42 -108.11,154.86 M 18.871,392.16 c -32.128,49.726 -65.554,93.653 -103.4,117.8 M 20.611,371.03 c -32.41,36.867 -65.548,68.179 -101.17,80.546 m 90.078,-95.73 c -42.392,28.14 -83.974,50.67 -122.8,54.11 m 103.98,-61.43 c -56.796,23.81 -111.28,42.05 -157.87,41.31 m 138.53,-47.566 c -70.973,19.812 -138.36,34.207 -193.52,30.132 m 174.05,-36.33 c -84.91,15.718 -165.1,26.228 -229.17,18.978 m 209.88,-25.847 c -98.575,11.119 -191.36,17.292 -264.4,6.5978 m 246.68,-16.549 c -111.25,4.401 -215.68,4.2595 -296.87,-11.372 m 308.72,-1.1924 c -104.19,-4.14 -201.64,-12.28 -276.04,-34.07 m 296.3,28.959 c -91.17,-7.7 -176.13,-19.15 -239.89,-43.4 m 260.45,39.51 c -78.021,-10.48 -150.34,-24.49 -203.22,-50.53 m 223.92,46.94 c -65.021,-13.2 -124.76,-29.66 -166.49,-57.23 m 187.23,53.25 c -52.394,-16.44 -99.743,-35.73 -129.89,-64.73 m 149.7,57.77 c -41.155,-22.52 -77.136,-47 -95.47,-78.18 m 99.723,58.679 c -40.067,-37.49 -74.355,-75.37 -88.935,-114.55 m 89.419,94.301 c -40.599,-52.39 -75.071,-103.81 -88.649,-151.9 m 88.49,131.52 c -41.145,-67.02 -75.956,-131.85 -89.163,-189.24 m 89.214,168.79 c -41.404,-81.49 -76.347,-159.68 -89.258,-226.6 m 90.509,206.16 c -40.761,-95.872 -75.018,-187.36 -87.093,-263.86 m 97.314,250.46 c -34.145,-105.86 -62.083,-206.38 -68.85,-288.69 m 82.141,304.65 C 32.867,88.9064 13.279,-1.8836 13.246,-75.6136 m 55.477,278.36 c -18.311,-84.26 -31.271,-163.96 -25.988,-228.13 m 35.876,246.6 c -11.696,-72.61 -18.413,-141.06 -8.154,-195.31 m 18.029,213.89 c -5.018,-61.23 -5.461,-118.54 9.697,-162.5 m 0.938,180.82 c 2.398,-50.66 8.838,-97.37 29.048,-130.56 m -12.71,140.44 c 14.414,-46.738 31.77,-88.714 59.159,-114.45 m -39.533,109.86 c 28.74,-51.549 59.156,-97.404 95.283,-123.84 m -75.94,117.67 c 42.62,-56.68 85.76,-106.99 130.73,-135.62 m -111.37,129.16 c 56.31,-61.63 112.1,-116.37 166.11,-147.62 m -146.54,141.63 c 70.04,-66.11 138.53,-124.9 201.77,-158.72 m -181.69,154.96 c 84.13,-69.04 165.66,-130.43 238.37,-165.75 m -234.14,179.79 c 87.794,-60.121 172.46,-112.93 246.46,-140.79 m -259.42,157.16 c 79.65,-49.364 156.45,-91.942 223.51,-111.38 m -237.75,126.71 c 70.685,-39.319 138.81,-72.343 198.21,-83.899 m -212.83,98.96 c 61.714,-29.471 121.08,-53.112 172.43,-56.874 m -186.95,72.173 c 53.221,-19.514 104.1,-33.661 147,-29.511 m -160.26,46.03 c 46.515,-8.5914 90.242,-12.387 124.46,0.17405 m -120.09,18.573 c 52.267,4.4025 100.35,12.691 134.16,34.232 m -122.9,-17.43 c 61.438,16.249 117.55,35.478 155.51,64.87 m -143.46,-48.47 c 70.523,27.785 134.81,57.687 177.85,94.809 m -165.79,-78.3 c 79.32,39.31 151.63,79.9 200.03,124.86 m -188.72,-107.8 c 87.493,51.176 167.28,102.79 220.81,155.89 m -215.39,-137.04 c 91.815,64.405 175.42,128.26 231,190.26"
                 transform="matrix(0.037603,0,0,0.037603,66.788905,17.671573)"
                 style="fill:url(#radialGradient3026);stroke:#541800;stroke-width:2.92529988;stroke-linecap:round;filter:url(#filter4120)"
                 inkscape:connector-curvature="0" />
              <path
                 transform="matrix(0.1,0,0,0.1,40.448905,-17.078426)"
                 id="path3847"
                 style="color:#000000;opacity:0.58846005;fill:#ffffff;stroke:#00ff00;stroke-width:0.1;filter:url(#filter3863)"
                 d="m 454.9,602.04 -79.674,-123.65 90.223,-113.11 -7.6037,5.3051 -87.458,107.88 80.897,122.03 z"
                 inkscape:connector-curvature="0" />
            </g>
          </svg>
        </g>
	<g id="highscoretable" transform="translate(40,40)" style="visibility:hidden">
	  <rect width="520" height="480"
	   style="fill:white;stroke:red;stroke-width:2"/>
	  <text x="160" y="40"
	   style="fill:red;font-size:30px;font-weight:bold;text-anchor:middle">
	    High Score Table
	  </text>
	  <text id="highscoretext" y="35"
	   style="font-size: 20px;font-weight:bold"/>
	  <g onclick="top.restart(true)">
        <rect class="button" x="200" y="400" width="200" height="50" rx="10" ry="10"  />
        <text class="button_text" x="300" y="430">Play Again</text>
      </g>
	</g>
      </g>
    <g id="mainPage" transform="translate(0,0)" width="600" height="560">
      <rect x="0" y="0" width="600" height="560" style="fill:lightgreen" />
      <text id="titleText" x="325" y="100" style="font-family: Arial; font-size: 40px; fill: blue; text-anchor: middle">Save Merlin Star</text>
      <text class="instruction_text" x="50" y="150">You have to collect all items and then go</text>
      <text class="instruction_text" x="50" y="175">to the exit before time is up.</text>
      <text class="instruction_text" x="50" y="250">Instruction:</text>
      <text class="instruction_text" x="50" y="275">Z: Up</text>
      <text class="instruction_text" x="50" y="300">N: Left</text>
      <text class="instruction_text" x="50" y="325">M: Right</text>
      <text class="instruction_text" x="50" y="350">C: Cheat Mode</text>
      <text class="instruction_text" x="50" y="375">V: Cancel Cheat Mode</text>
      <text class="instruction_text" x="50" y="400">Space: Shoot bullet</text>
      
      <text id="authorInfoText" x="100" y="550" style="font-family: Arial; font-size: 20px; fill: blue; text-anchor: middle">Anshul Aggarwal 7104</text>
      <g onclick="top.initializeGame(true)">
        <rect class="button" x="200" y="450" width="200" height="50" rx="10" ry="10" />
        <text class="button_text" id="normalModeText" x="300" y="480">Start Game</text>
      </g>
    </g>
    </g>
  </g>
</svg>
